<?xml version="1.0" standalone="no"?>
<!DOCTYPE svg PUBLIC "-//W3C//DTD SVG 20010904//EN"
 "http://www.w3.org/TR/2001/REC-SVG-20010904/DTD/svg10.dtd">
<svg version="1.0" xmlns="http://www.w3.org/2000/svg"
 width="1200.000000pt" height="1200.000000pt" viewBox="0 0 1200.000000 1200.000000"
 preserveAspectRatio="xMidYMid meet">
<metadata>
Created by potrace 1.14, written by Peter Selinger 2001-2017
</metadata>
<g transform="translate(0.000000,1200.000000) scale(0.100000,-0.100000)"
fill="#000000" stroke="none">
<path d="M2937 9178 c-57 -15 -103 -66 -117 -130 -8 -39 -10 -608 -8 -2143 3
-1968 4 -2092 20 -2122 10 -18 35 -45 55 -60 l36 -28 3056 -3 c2776 -2 3060
-1 3098 14 56 20 89 62 102 126 8 38 11 665 9 2138 l-3 2085 -24 41 c-13 24
-41 52 -65 65 l-41 24 -3040 2 c-2040 1 -3053 -2 -3078 -9z"/>
<path d="M2251 4597 c-1 -225 12 -296 81 -436 43 -88 64 -117 132 -185 85 -85
154 -131 256 -173 134 -54 110 -53 1278 -53 l1082 0 0 118 c0 64 -3 147 -6
184 l-7 67 -1096 3 -1096 3 -73 23 c-274 84 -479 301 -537 567 -13 58 -13 54
-14 -118z"/>
<path d="M9742 4747 c-4 -51 -52 -181 -94 -252 -24 -42 -76 -104 -127 -155
-96 -95 -192 -152 -321 -192 l-75 -23 -1096 -3 -1096 -3 -7 -67 c-3 -37 -6
-120 -6 -184 l0 -118 1083 0 c1167 0 1143 -1 1277 53 95 39 168 86 239 157 88
86 105 109 156 215 63 128 76 209 73 425 -2 96 -5 162 -6 147z"/>
<path d="M3773 2383 c-13 -34 -18 -75 -18 -138 0 -82 3 -97 33 -157 40 -82
119 -157 200 -190 l57 -23 1955 0 1955 0 57 23 c81 33 160 108 200 190 30 60
33 75 33 157 0 63 -5 104 -18 138 -10 26 -22 47 -25 47 -4 -1 -19 -18 -34 -40
-33 -48 -118 -106 -183 -126 -72 -21 -3898 -21 -3970 0 -65 20 -150 78 -183
126 -15 22 -30 39 -34 40 -3 0 -15 -21 -25 -47z"/>
</g>
</svg>
